<svg version="1.2" baseProfile="tiny-ps" xmlns="http://www.w3.org/2000/svg" viewBox="0 0 247 162" width="247" height="162">
	<title>network-svg</title>
	<defs>
		<clipPath clipPathUnits="userSpaceOnUse" id="cp1">
			<path d="M62.88 5.18L188.13 5.18L188.13 122.18L62.88 122.18L62.88 5.18Z" />
		</clipPath>
	</defs>
	<style>
		tspan { white-space:pre }
		.shp0 { fill: #028090 } 
		.shp1 { fill: #3d414b } 
	</style>
	<g id="Clip-Path" clip-path="url(#cp1)">
		<g id="Layer">
			<path id="Layer" class="shp0" d="M183.92 45.41C183.82 49.33 183.89 53.28 183.82 57.2C171.64 57.2 159.45 57.15 147.28 57.23C147.3 74 147.3 90.79 147.28 107.55C147.2 107.98 147.2 108.38 147.3 108.73C149.83 109.78 151.64 112.28 151.64 115.18C151.64 119.02 148.5 122.17 144.62 122.17C144.6 122.17 144.6 122.17 144.57 122.17C144.25 122.17 143.92 122.14 143.6 122.1C140.21 121.62 137.59 118.7 137.59 115.18C137.59 112.32 139.29 109.9 141.72 108.8C141.89 89.84 141.74 70.85 141.79 51.88C153.99 51.83 166.19 51.88 178.41 51.83C178.43 49.71 178.43 47.56 178.41 45.43C175.88 44.39 174.1 41.89 174.1 38.99C174.1 36.06 175.9 33.57 178.43 32.52C178.38 26.52 178.46 20.52 178.41 14.52C153.24 14.57 128.07 14.48 102.9 14.57C101.92 17.25 99.34 19.15 96.34 19.15C93.3 19.15 90.73 17.22 89.75 14.55C82.59 14.5 75.45 14.57 68.31 14.5C68.14 26.95 68.26 39.41 68.26 51.86C69.96 51.83 71.67 51.8 73.37 51.76C74.42 49.23 76.93 47.46 79.83 47.46C82.76 47.46 85.27 49.26 86.32 51.8C86.44 51.83 86.57 51.83 86.7 51.83C88.3 51.83 104.93 51.83 104.93 51.91C104.95 73.47 104.95 95.04 104.9 116.63C112.71 116.68 120.58 116.88 128.39 116.52C128.34 103.3 128.34 90.06 128.39 76.84C128.29 76.74 128.19 76.64 128.09 76.54C125.64 75.45 123.93 73.02 123.93 70.17C123.93 67.25 125.74 64.73 128.32 63.7C128.45 54.93 128.32 46.16 128.39 37.39C140.36 37.04 152.36 37.41 164.36 37.21C164.33 34.36 164.31 31.52 164.28 28.69C159.47 28.67 154.66 28.69 149.86 28.67C148.86 31.29 146.3 33.16 143.32 33.16C140.34 33.16 137.81 31.32 136.79 28.69C118.85 28.62 100.95 28.77 83.01 28.62C82.46 31.46 82.59 34.36 82.64 37.24C94.58 37.29 106.5 37.26 118.45 37.26C118.63 57.05 118.48 76.84 118.5 96.63C121.11 97.66 122.98 100.18 122.98 103.16C122.98 107 119.85 110.15 115.97 110.15C112.11 110.15 108.96 107.03 108.96 103.16C108.96 100.38 110.59 97.98 112.94 96.86L112.94 42.64C101.04 42.61 89.12 42.73 77.23 42.59C77.45 36.14 76.82 29.67 77.65 23.27C97.44 23.3 117.22 23.42 137.01 23.2C138.14 20.85 140.54 19.2 143.32 19.2C146.2 19.2 148.66 20.92 149.73 23.39C149.83 23.47 149.96 23.55 150.06 23.59C156.62 23.84 163.18 23.62 169.77 23.67C169.74 29.99 169.77 36.31 169.74 42.64C157.62 42.66 145.5 42.59 133.38 42.69C133.38 49.66 133.3 56.65 133.4 63.65C136.06 64.65 137.96 67.2 137.96 70.2C137.96 73.14 136.13 75.64 133.58 76.67C133.5 76.74 133.43 76.82 133.35 76.87C133.4 91.96 133.38 107.03 133.38 122.12C122.11 122.05 110.86 122.1 99.59 122.1C99.57 100.48 99.62 78.87 99.57 57.25C95.16 57.2 90.73 57.2 86.29 57.23C85.21 59.73 82.74 61.48 79.86 61.48C76.98 61.48 74.5 59.73 73.42 57.25C69.94 57.2 66.46 57.23 62.98 57.23C62.9 41.19 62.88 25.14 62.98 9.13C72.02 9.08 81.06 9.28 90.1 9.03C91.25 6.75 93.61 5.18 96.34 5.18C99.09 5.18 101.47 6.78 102.62 9.08C129.7 9.2 156.75 9.1 183.82 9.13C183.94 16.95 183.82 24.75 183.87 32.57C186.37 33.64 188.13 36.11 188.13 38.99C188.13 41.86 186.4 44.34 183.92 45.41Z" />
		</g>
	</g>
	<g id="Layer">
		<g id="Layer">
			<g id="Layer">
				<path id="Layer" class="shp1" d="M17.4 144.36L19.17 144.36L19.17 156.74L17.2 156.74L17.2 149.05L13.9 156.74L12.43 156.74L9.14 149.15L9.14 156.74L7.15 156.74L7.15 144.36L8.92 144.36L13.18 154.05L17.4 144.36Z" />
			</g>
		</g>
	</g>
	<g id="Layer">
		<g id="Layer">
			<g id="Layer">
				<path id="Layer" fill-rule="evenodd" class="shp1" d="M32.68 156.74L31.44 153.83L25.4 153.83L24.15 156.74L21.88 156.74L27.48 144.36L29.3 144.36L34.91 156.74L32.68 156.74ZM26.13 152.1L30.69 152.1L28.41 146.8L26.13 152.1Z" />
			</g>
		</g>
	</g>
	<g id="Layer">
		<g id="Layer">
			<g id="Layer">
				<path id="Layer" class="shp1" d="M40.48 156.74L40.48 146.21L36.45 146.21L36.45 144.36L46.8 144.36L46.8 146.21L42.75 146.21L42.75 156.74L40.48 156.74Z" />
			</g>
		</g>
	</g>
	<g id="Layer">
		<g id="Layer">
			<g id="Layer">
				<path id="Layer" class="shp1" d="M55.29 156.9C54.08 156.9 53.01 156.64 52.09 156.11C51.18 155.59 50.49 154.86 50 153.9C49.52 152.94 49.28 151.82 49.28 150.54C49.28 149.27 49.52 148.15 50 147.19C50.49 146.23 51.18 145.5 52.09 144.99C53.01 144.47 54.08 144.21 55.29 144.21C56.13 144.21 56.91 144.34 57.64 144.6C58.38 144.86 58.99 145.22 59.48 145.69L58.75 147.32C58.19 146.87 57.64 146.55 57.09 146.35C56.54 146.14 55.95 146.04 55.33 146.04C54.13 146.04 53.2 146.43 52.54 147.21C51.9 147.98 51.58 149.09 51.58 150.54C51.58 152 51.9 153.11 52.54 153.9C53.19 154.68 54.11 155.07 55.33 155.07C55.95 155.07 56.54 154.97 57.09 154.77C57.64 154.56 58.19 154.23 58.75 153.79L59.48 155.41C58.99 155.88 58.38 156.25 57.64 156.5C56.91 156.76 56.13 156.9 55.29 156.9Z" />
			</g>
		</g>
	</g>
	<g id="Layer">
		<g id="Layer">
			<g id="Layer">
				<path id="Layer" class="shp1" d="M71.47 144.36L73.69 144.36L73.69 156.74L71.47 156.74L71.47 151.36L65.13 151.36L65.13 156.74L62.92 156.74L62.92 144.36L65.13 144.36L65.13 149.55L71.47 149.55L71.47 144.36Z" />
			</g>
		</g>
	</g>
	<g id="Layer">
		<g id="Layer">
			<g id="Layer">
			</g>
		</g>
	</g>
	<g id="Layer">
		<g id="Layer">
			<g id="Layer">
				<path id="Layer" fill-rule="evenodd" class="shp1" d="M83.81 144.36L89.17 144.36C90.5 144.36 91.53 144.69 92.28 145.33C93.01 145.98 93.38 146.86 93.38 147.96C93.38 149.07 93.01 149.96 92.26 150.61C91.52 151.26 90.49 151.58 89.17 151.58L86.04 151.58L86.04 156.74L83.81 156.74L83.81 144.36ZM88.92 149.85C89.69 149.85 90.27 149.69 90.67 149.36C91.07 149.04 91.28 148.58 91.28 147.99C91.28 147.38 91.08 146.91 90.68 146.58C90.28 146.26 89.7 146.1 88.92 146.1L86.04 146.1L86.04 149.85L88.92 149.85Z" />
			</g>
		</g>
	</g>
	<g id="Layer">
		<g id="Layer">
			<g id="Layer">
				<path id="Layer" fill-rule="evenodd" class="shp1" d="M106.89 156.74L104.53 156.74L102.95 152.61C102.8 152.24 102.58 151.98 102.29 151.83C102.01 151.68 101.64 151.6 101.17 151.6L98.93 151.6L98.93 156.74L96.71 156.74L96.71 144.36L102.01 144.36C103.41 144.36 104.47 144.67 105.2 145.29C105.93 145.9 106.29 146.78 106.29 147.93C106.29 148.75 106.07 149.45 105.64 150.02C105.21 150.59 104.59 151 103.79 151.25C104.52 151.4 105.05 151.91 105.39 152.77L106.89 156.74ZM101.7 149.86C102.54 149.86 103.17 149.71 103.57 149.4C103.98 149.08 104.18 148.61 104.18 147.96C104.18 147.33 103.98 146.87 103.57 146.57C103.18 146.25 102.55 146.1 101.7 146.1L98.9 146.1L98.9 149.86L101.7 149.86Z" />
			</g>
		</g>
	</g>
	<g id="Layer">
		<g id="Layer">
			<g id="Layer">
				<path id="Layer" fill-rule="evenodd" class="shp1" d="M115.73 156.9C114.53 156.9 113.49 156.64 112.61 156.13C111.72 155.61 111.04 154.88 110.56 153.93C110.08 152.97 109.84 151.84 109.84 150.54C109.84 149.25 110.08 148.14 110.55 147.18C111.02 146.22 111.71 145.48 112.59 144.97C113.48 144.47 114.52 144.21 115.73 144.21C116.94 144.21 117.99 144.47 118.87 144.97C119.76 145.48 120.44 146.22 120.9 147.18C121.37 148.14 121.61 149.25 121.61 150.54C121.61 151.84 121.37 152.97 120.89 153.93C120.42 154.88 119.74 155.61 118.86 156.13C117.98 156.64 116.94 156.9 115.73 156.9ZM115.73 155.1C116.88 155.1 117.77 154.71 118.4 153.93C119.04 153.14 119.36 152 119.36 150.54C119.36 149.08 119.04 147.96 118.4 147.18C117.77 146.4 116.88 146 115.73 146C114.58 146 113.69 146.4 113.06 147.18C112.42 147.95 112.11 149.07 112.11 150.54C112.11 152 112.42 153.14 113.06 153.93C113.69 154.71 114.58 155.1 115.73 155.1Z" />
			</g>
		</g>
	</g>
	<g id="Layer">
		<g id="Layer">
			<g id="Layer">
				<path id="Layer" class="shp1" d="M125.24 156.74L125.24 144.36L133.32 144.36L133.32 146.16L127.46 146.16L127.46 149.55L132.96 149.55L132.96 151.35L127.46 151.35L127.46 156.74L125.24 156.74Z" />
			</g>
		</g>
	</g>
	<g id="Layer">
		<g id="Layer">
			<g id="Layer">
				<path id="Layer" class="shp1" d="M136.52 156.74L136.52 144.36L144.78 144.36L144.78 146.15L138.7 146.15L138.7 149.57L144.42 149.57L144.42 151.33L138.7 151.33L138.7 154.97L144.78 154.97L144.78 156.74L136.52 156.74Z" />
			</g>
		</g>
	</g>
	<g id="Layer">
		<g id="Layer">
			<g id="Layer">
				<path id="Layer" class="shp1" d="M152.38 156.9C151.42 156.9 150.52 156.77 149.69 156.52C148.87 156.26 148.17 155.89 147.6 155.41L148.36 153.79C148.97 154.23 149.59 154.57 150.24 154.79C150.9 155 151.61 155.1 152.4 155.1C153.25 155.1 153.91 154.95 154.38 154.66C154.85 154.36 155.08 153.93 155.08 153.38C155.08 152.92 154.86 152.57 154.43 152.32C154 152.07 153.29 151.83 152.29 151.61C150.73 151.28 149.6 150.85 148.9 150.32C148.18 149.78 147.83 149 147.83 147.99C147.83 147.25 148.03 146.6 148.43 146.04C148.82 145.47 149.38 145.03 150.1 144.71C150.82 144.38 151.66 144.21 152.61 144.21C153.49 144.21 154.32 144.34 155.1 144.6C155.88 144.86 156.52 145.22 157.02 145.69L156.27 147.32C155.16 146.44 153.95 146 152.61 146C151.81 146 151.18 146.17 150.71 146.5C150.25 146.83 150.02 147.28 150.02 147.85C150.02 148.33 150.22 148.7 150.63 148.96C151.04 149.21 151.75 149.44 152.75 149.66C153.79 149.91 154.62 150.18 155.27 150.46C155.93 150.74 156.43 151.11 156.77 151.55C157.11 152 157.29 152.56 157.29 153.22C157.29 153.97 157.09 154.63 156.69 155.18C156.31 155.72 155.74 156.14 154.99 156.44C154.25 156.74 153.38 156.9 152.38 156.9Z" />
			</g>
		</g>
	</g>
	<g id="Layer">
		<g id="Layer">
			<g id="Layer">
				<path id="Layer" class="shp1" d="M164.91 156.9C163.94 156.9 163.05 156.77 162.22 156.52C161.39 156.26 160.69 155.89 160.12 155.41L160.89 153.79C161.49 154.23 162.12 154.57 162.77 154.79C163.42 155 164.14 155.1 164.92 155.1C165.77 155.1 166.44 154.95 166.91 154.66C167.37 154.36 167.61 153.93 167.61 153.38C167.61 152.92 167.39 152.57 166.95 152.32C166.52 152.07 165.81 151.83 164.81 151.61C163.26 151.28 162.13 150.85 161.42 150.32C160.71 149.78 160.36 149 160.36 147.99C160.36 147.25 160.55 146.6 160.95 146.04C161.35 145.47 161.91 145.03 162.62 144.71C163.35 144.38 164.19 144.21 165.14 144.21C166.02 144.21 166.84 144.34 167.62 144.6C168.41 144.86 169.05 145.22 169.55 145.69L168.8 147.32C167.69 146.44 166.47 146 165.14 146C164.34 146 163.7 146.17 163.23 146.5C162.77 146.83 162.55 147.28 162.55 147.85C162.55 148.33 162.75 148.7 163.16 148.96C163.57 149.21 164.28 149.44 165.28 149.66C166.31 149.91 167.15 150.18 167.8 150.46C168.45 150.74 168.95 151.11 169.3 151.55C169.64 152 169.81 152.56 169.81 153.22C169.81 153.97 169.61 154.63 169.22 155.18C168.83 155.72 168.27 156.14 167.52 156.44C166.77 156.74 165.91 156.9 164.91 156.9Z" />
			</g>
		</g>
	</g>
	<g id="Layer">
		<g id="Layer">
			<g id="Layer">
				<path id="Layer" class="shp1" d="M173.24 156.74L173.24 144.36L175.48 144.36L175.48 156.74L173.24 156.74Z" />
			</g>
		</g>
	</g>
	<g id="Layer">
		<g id="Layer">
			<g id="Layer">
				<path id="Layer" fill-rule="evenodd" class="shp1" d="M184.98 156.9C183.78 156.9 182.74 156.64 181.86 156.13C180.97 155.61 180.29 154.88 179.81 153.93C179.33 152.97 179.09 151.84 179.09 150.54C179.09 149.25 179.33 148.14 179.8 147.18C180.27 146.22 180.96 145.48 181.84 144.97C182.73 144.47 183.77 144.21 184.98 144.21C186.19 144.21 187.24 144.47 188.12 144.97C189.01 145.48 189.69 146.22 190.16 147.18C190.62 148.14 190.86 149.25 190.86 150.54C190.86 151.84 190.62 152.97 190.14 153.93C189.67 154.88 188.99 155.61 188.11 156.13C187.23 156.64 186.19 156.9 184.98 156.9ZM184.98 155.1C186.13 155.1 187.02 154.71 187.66 153.93C188.29 153.14 188.61 152 188.61 150.54C188.61 149.08 188.29 147.96 187.66 147.18C187.02 146.4 186.13 146 184.98 146C183.83 146 182.94 146.4 182.31 147.18C181.67 147.95 181.36 149.07 181.36 150.54C181.36 152 181.67 153.14 182.31 153.93C182.94 154.71 183.83 155.1 184.98 155.1Z" />
			</g>
		</g>
	</g>
	<g id="Layer">
		<g id="Layer">
			<g id="Layer">
				<path id="Layer" class="shp1" d="M202.8 144.36L204.91 144.36L204.91 156.74L203.24 156.74L196.57 148.07L196.57 156.74L194.49 156.74L194.49 144.36L196.15 144.36L202.8 153.02L202.8 144.36Z" />
			</g>
		</g>
	</g>
	<g id="Layer">
		<g id="Layer">
			<g id="Layer">
				<path id="Layer" fill-rule="evenodd" class="shp1" d="M218.4 156.74L217.17 153.83L211.12 153.83L209.87 156.74L207.6 156.74L213.2 144.36L215.02 144.36L220.63 156.74L218.4 156.74ZM211.85 152.1L216.42 152.1L214.13 146.8L211.85 152.1Z" />
			</g>
		</g>
	</g>
	<g id="Layer">
		<g id="Layer">
			<g id="Layer">
				<path id="Layer" class="shp1" d="M223.31 156.74L223.31 144.36L225.55 144.36L225.55 154.9L231.33 154.9L231.33 156.74L223.31 156.74Z" />
			</g>
		</g>
	</g>
	<g id="Layer">
		<g id="Layer">
			<g id="Layer">
				<path id="Layer" class="shp1" d="M238.57 156.9C237.61 156.9 236.71 156.77 235.88 156.52C235.06 156.26 234.36 155.89 233.79 155.41L234.55 153.79C235.15 154.23 235.78 154.57 236.43 154.79C237.08 155 237.8 155.1 238.58 155.1C239.44 155.1 240.1 154.95 240.57 154.66C241.04 154.36 241.27 153.93 241.27 153.38C241.27 152.92 241.05 152.57 240.62 152.32C240.19 152.07 239.48 151.83 238.48 151.61C236.92 151.28 235.79 150.85 235.08 150.32C234.37 149.78 234.02 149 234.02 147.99C234.02 147.25 234.22 146.6 234.62 146.04C235.01 145.47 235.57 145.03 236.29 144.71C237.01 144.38 237.85 144.21 238.8 144.21C239.68 144.21 240.51 144.34 241.29 144.6C242.07 144.86 242.71 145.22 243.21 145.69L242.46 147.32C241.35 146.44 240.14 146 238.8 146C238 146 237.37 146.17 236.9 146.5C236.44 146.83 236.21 147.28 236.21 147.85C236.21 148.33 236.41 148.7 236.82 148.96C237.23 149.21 237.94 149.44 238.94 149.66C239.98 149.91 240.81 150.18 241.46 150.46C242.12 150.74 242.62 151.11 242.96 151.55C243.3 152 243.48 152.56 243.48 153.22C243.48 153.97 243.28 154.63 242.88 155.18C242.49 155.72 241.93 156.14 241.18 156.44C240.44 156.74 239.57 156.9 238.57 156.9Z" />
			</g>
		</g>
	</g>
</svg>